<svg xmlns="http://www.w3.org/2000/svg" width="920" height="340" viewBox="0 0 920 340" fill="none">
  <defs>
    <linearGradient id="sentryAreaGrad" x1="0" y1="0" x2="0" y2="1">
      <stop offset="0%" stop-color="#88001b" stop-opacity="0.6"/>
      <stop offset="75%" stop-color="#88001b" stop-opacity="0.1"/>
      <stop offset="100%" stop-color="#200009" stop-opacity="0.0"/>
    </linearGradient>
    <filter id="neonGlow" x="-20%" y="-20%" width="140%" height="140%">
      <feGaussianBlur stdDeviation="3" result="blur" />
      <feMerge>
        <feMergeNode in="blur" />
        <feMergeNode in="SourceGraphic" />
      </feMerge>
    </filter>
  </defs>

  <!-- Background Frame -->
  <rect width="920" height="340" rx="12" fill="#200009" stroke="#88001b" stroke-width="1.5" />

  <!-- Window Header Bar -->
  <rect x="0" y="0" width="920" height="42" rx="12" fill="#15000a" />
  <rect x="0" y="32" width="920" height="10" fill="#15000a" />
  <line x1="0" y1="42" x2="920" y2="42" stroke="#88001b" stroke-width="1" />

  <!-- Terminal Traffic Lights -->
  <circle cx="26" cy="21" r="6" fill="#ff5f58" />
  <circle cx="46" cy="21" r="6" fill="#ffbd2e" />
  <circle cx="66" cy="21" r="6" fill="#18c132" />

  <!-- Title -->
  <text x="460" y="26" fill="#e6ffe6" font-family="'Fira Code', Monaco, monospace" font-size="13" font-weight="600" text-anchor="middle">
    WhoIsMrSentry / 30-Day Contribution Activity Graph
  </text>

  <!-- Quick Stat Badges -->
  <text x="885" y="62" fill="#39ff14" font-family="Monaco, Consolas, monospace" font-size="12" font-weight="bold" text-anchor="end">
    Recent Contribs: 250  •  Avg: 8.3/day
  </text>

  <!-- Grids & Axis -->
  <line x1="65" y1="290.0" x2="885" y2="290.0" stroke="#88001b" stroke-opacity="0.3" stroke-dasharray="3,3" /><text x="53" y="294.0" fill="#e6ffe6" font-family="Monaco, Consolas, monospace" font-size="11" text-anchor="end">0</text><line x1="65" y1="238.4" x2="885" y2="238.4" stroke="#88001b" stroke-opacity="0.3" stroke-dasharray="3,3" /><text x="53" y="242.4" fill="#e6ffe6" font-family="Monaco, Consolas, monospace" font-size="11" text-anchor="end">6</text><line x1="65" y1="186.8" x2="885" y2="186.8" stroke="#88001b" stroke-opacity="0.3" stroke-dasharray="3,3" /><text x="53" y="190.8" fill="#e6ffe6" font-family="Monaco, Consolas, monospace" font-size="11" text-anchor="end">12</text><line x1="65" y1="135.2" x2="885" y2="135.2" stroke="#88001b" stroke-opacity="0.3" stroke-dasharray="3,3" /><text x="53" y="139.2" fill="#e6ffe6" font-family="Monaco, Consolas, monospace" font-size="11" text-anchor="end">18</text><line x1="65" y1="75.0" x2="885" y2="75.0" stroke="#88001b" stroke-opacity="0.3" stroke-dasharray="3,3" /><text x="53" y="79.0" fill="#e6ffe6" font-family="Monaco, Consolas, monospace" font-size="11" text-anchor="end">25</text>
  <text x="65.0" y="310" fill="#e6ffe6" font-family="Monaco, Consolas, monospace" font-size="11" text-anchor="middle">08-22</text><text x="206.38" y="310" fill="#e6ffe6" font-family="Monaco, Consolas, monospace" font-size="11" text-anchor="middle">08-27</text><text x="347.76" y="310" fill="#e6ffe6" font-family="Monaco, Consolas, monospace" font-size="11" text-anchor="middle">09-01</text><text x="489.14" y="310" fill="#e6ffe6" font-family="Monaco, Consolas, monospace" font-size="11" text-anchor="middle">09-06</text><text x="630.52" y="310" fill="#e6ffe6" font-family="Monaco, Consolas, monospace" font-size="11" text-anchor="middle">09-11</text><text x="771.9" y="310" fill="#e6ffe6" font-family="Monaco, Consolas, monospace" font-size="11" text-anchor="middle">09-16</text><text x="885.0" y="310" fill="#39ff14" font-family="Monaco, Consolas, monospace" font-size="11" text-anchor="middle">09-20</text>

  <!-- Area Fill -->
  <path d="M 65.0 152.4 C 69.7 156.7, 83.9 178.2, 93.28 178.2 C 102.7 178.2, 112.1 151.0, 121.55 152.4 C 131.0 153.8, 140.4 186.8, 149.83 186.8 C 159.3 186.8, 168.7 169.6, 178.1 152.4 C 187.5 135.2, 197.0 83.6, 206.38 83.6 C 215.8 83.6, 225.2 133.8, 234.66 152.4 C 244.1 171.0, 253.5 183.9, 262.93 195.4 C 272.4 206.9, 281.8 216.9, 291.21 221.2 C 300.6 225.5, 310.1 221.2, 319.48 221.2 C 328.9 221.2, 338.3 221.2, 347.76 221.2 C 357.2 221.2, 366.6 221.2, 376.03 221.2 C 385.5 221.2, 394.9 221.2, 404.31 221.2 C 413.7 221.2, 423.2 242.7, 432.59 221.2 C 442.0 199.7, 451.4 85.0, 460.86 92.2 C 470.3 99.4, 479.7 238.4, 489.14 264.2 C 498.6 290.0, 508.0 249.9, 517.41 247.0 C 526.8 244.1, 536.3 249.9, 545.69 247.0 C 555.1 244.1, 564.5 229.8, 573.97 229.8 C 583.4 229.8, 592.8 244.1, 602.24 247.0 C 611.7 249.9, 621.1 247.0, 630.52 247.0 C 639.9 247.0, 649.4 247.0, 658.79 247.0 C 668.2 247.0, 677.6 247.0, 687.07 247.0 C 696.5 247.0, 705.9 251.3, 715.34 247.0 C 724.8 242.7, 734.2 214.0, 743.62 221.2 C 753.0 228.4, 762.5 278.5, 771.9 290.0 C 781.3 301.5, 790.7 292.9, 800.17 290.0 C 809.6 287.1, 819.0 272.8, 828.45 272.8 C 837.9 272.8, 847.3 287.1, 856.72 290.0 C 866.1 292.9, 880.3 290.0, 885.0 290.0 L 885.0 290 L 65.0 290 Z" fill="url(#sentryAreaGrad)" />

  <!-- Glowing Line -->
  <path d="M 65.0 152.4 C 69.7 156.7, 83.9 178.2, 93.28 178.2 C 102.7 178.2, 112.1 151.0, 121.55 152.4 C 131.0 153.8, 140.4 186.8, 149.83 186.8 C 159.3 186.8, 168.7 169.6, 178.1 152.4 C 187.5 135.2, 197.0 83.6, 206.38 83.6 C 215.8 83.6, 225.2 133.8, 234.66 152.4 C 244.1 171.0, 253.5 183.9, 262.93 195.4 C 272.4 206.9, 281.8 216.9, 291.21 221.2 C 300.6 225.5, 310.1 221.2, 319.48 221.2 C 328.9 221.2, 338.3 221.2, 347.76 221.2 C 357.2 221.2, 366.6 221.2, 376.03 221.2 C 385.5 221.2, 394.9 221.2, 404.31 221.2 C 413.7 221.2, 423.2 242.7, 432.59 221.2 C 442.0 199.7, 451.4 85.0, 460.86 92.2 C 470.3 99.4, 479.7 238.4, 489.14 264.2 C 498.6 290.0, 508.0 249.9, 517.41 247.0 C 526.8 244.1, 536.3 249.9, 545.69 247.0 C 555.1 244.1, 564.5 229.8, 573.97 229.8 C 583.4 229.8, 592.8 244.1, 602.24 247.0 C 611.7 249.9, 621.1 247.0, 630.52 247.0 C 639.9 247.0, 649.4 247.0, 658.79 247.0 C 668.2 247.0, 677.6 247.0, 687.07 247.0 C 696.5 247.0, 705.9 251.3, 715.34 247.0 C 724.8 242.7, 734.2 214.0, 743.62 221.2 C 753.0 228.4, 762.5 278.5, 771.9 290.0 C 781.3 301.5, 790.7 292.9, 800.17 290.0 C 809.6 287.1, 819.0 272.8, 828.45 272.8 C 837.9 272.8, 847.3 287.1, 856.72 290.0 C 866.1 292.9, 880.3 290.0, 885.0 290.0" fill="none" stroke="#39ff14" stroke-width="3" filter="url(#neonGlow)" />

  <!-- Data Points -->
  <circle cx="65.0" cy="152.4" r="3.5" fill="#39ff14" stroke="#200009" stroke-width="1.5" /><circle cx="93.28" cy="178.2" r="3.5" fill="#39ff14" stroke="#200009" stroke-width="1.5" /><circle cx="121.55" cy="152.4" r="3.5" fill="#39ff14" stroke="#200009" stroke-width="1.5" /><circle cx="149.83" cy="186.8" r="3.5" fill="#39ff14" stroke="#200009" stroke-width="1.5" /><circle cx="178.1" cy="152.4" r="3.5" fill="#39ff14" stroke="#200009" stroke-width="1.5" /><circle cx="206.38" cy="83.6" r="3.5" fill="#39ff14" stroke="#200009" stroke-width="1.5" /><circle cx="234.66" cy="152.4" r="3.5" fill="#39ff14" stroke="#200009" stroke-width="1.5" /><circle cx="262.93" cy="195.4" r="3.5" fill="#39ff14" stroke="#200009" stroke-width="1.5" /><circle cx="291.21" cy="221.2" r="3.5" fill="#39ff14" stroke="#200009" stroke-width="1.5" /><circle cx="319.48" cy="221.2" r="3.5" fill="#39ff14" stroke="#200009" stroke-width="1.5" /><circle cx="347.76" cy="221.2" r="3.5" fill="#39ff14" stroke="#200009" stroke-width="1.5" /><circle cx="376.03" cy="221.2" r="3.5" fill="#39ff14" stroke="#200009" stroke-width="1.5" /><circle cx="404.31" cy="221.2" r="3.5" fill="#39ff14" stroke="#200009" stroke-width="1.5" /><circle cx="432.59" cy="221.2" r="3.5" fill="#39ff14" stroke="#200009" stroke-width="1.5" /><circle cx="460.86" cy="92.2" r="3.5" fill="#39ff14" stroke="#200009" stroke-width="1.5" /><circle cx="489.14" cy="264.2" r="3.5" fill="#39ff14" stroke="#200009" stroke-width="1.5" /><circle cx="517.41" cy="247.0" r="3.5" fill="#39ff14" stroke="#200009" stroke-width="1.5" /><circle cx="545.69" cy="247.0" r="3.5" fill="#39ff14" stroke="#200009" stroke-width="1.5" /><circle cx="573.97" cy="229.8" r="3.5" fill="#39ff14" stroke="#200009" stroke-width="1.5" /><circle cx="602.24" cy="247.0" r="3.5" fill="#39ff14" stroke="#200009" stroke-width="1.5" /><circle cx="630.52" cy="247.0" r="3.5" fill="#39ff14" stroke="#200009" stroke-width="1.5" /><circle cx="658.79" cy="247.0" r="3.5" fill="#39ff14" stroke="#200009" stroke-width="1.5" /><circle cx="687.07" cy="247.0" r="3.5" fill="#39ff14" stroke="#200009" stroke-width="1.5" /><circle cx="715.34" cy="247.0" r="3.5" fill="#39ff14" stroke="#200009" stroke-width="1.5" /><circle cx="743.62" cy="221.2" r="3.5" fill="#39ff14" stroke="#200009" stroke-width="1.5" /><circle cx="828.45" cy="272.8" r="3.5" fill="#39ff14" stroke="#200009" stroke-width="1.5" />
</svg>
