<?xml version="1.0" encoding="UTF-8"?>
<svg xmlns="http://www.w3.org/2000/svg" width="920" height="432" viewBox="0 0 920 432" role="img" aria-labelledby="title desc">
<title id="title">Libraries and Frameworks by Repo Usage</title>
<desc id="desc">Percentage of repositories that include each library or framework.</desc>
<style>
.bg{fill:#200009}
.title{fill:#00ff41;font:700 26px "JetBrains Mono",Consolas,monospace}
.sub{fill:#e6ffe6;font:400 14px "JetBrains Mono",Consolas,monospace}
.section{fill:#ff1744;font:700 16px "JetBrains Mono",Consolas,monospace}
.label{fill:#e6ffe6;font:400 13px "JetBrains Mono",Consolas,monospace}
.pct{fill:#e6ffe6;font:700 13px "JetBrains Mono",Consolas,monospace;text-anchor:end}
.muted{fill:#9fb39f;font:400 13px "JetBrains Mono",Consolas,monospace}
</style>
<rect class="bg" x="0" y="0" width="920" height="432"/>
<rect x="18" y="18" width="884" height="396" rx="12" fill="none" stroke="#88001b" stroke-width="2"/>
<text x="40" y="56" class="title">Libraries &amp; Frameworks Usage</text>
<text x="40" y="80" class="sub">@WhoIsMrSentry • 41 repos • dependency/topic based (not bytes)</text>
<text x="40" y="114" class="section">Top Libraries &amp; Frameworks</text>
<text x="40" y="138" class="label">OpenCV (7 repos)</text>
<rect x="395" y="127" width="425" height="10" rx="5" fill="#2a0d18"/>
<rect x="395" y="127" width="73" height="10" rx="5" fill="#ff1744"/>
<text x="870" y="138" class="pct">17.1%</text>
<text x="40" y="166" class="label">NumPy (5 repos)</text>
<rect x="395" y="155" width="425" height="10" rx="5" fill="#2a0d18"/>
<rect x="395" y="155" width="52" height="10" rx="5" fill="#ff1744"/>
<text x="870" y="166" class="pct">12.2%</text>
<text x="40" y="194" class="label">FastAPI (3 repos)</text>
<rect x="395" y="183" width="425" height="10" rx="5" fill="#2a0d18"/>
<rect x="395" y="183" width="31" height="10" rx="5" fill="#ff1744"/>
<text x="870" y="194" class="pct">7.3%</text>
<text x="40" y="222" class="label">Vite (2 repos)</text>
<rect x="395" y="211" width="425" height="10" rx="5" fill="#2a0d18"/>
<rect x="395" y="211" width="21" height="10" rx="5" fill="#ff1744"/>
<text x="870" y="222" class="pct">4.9%</text>
<text x="40" y="250" class="label">Flask (1 repos)</text>
<rect x="395" y="239" width="425" height="10" rx="5" fill="#2a0d18"/>
<rect x="395" y="239" width="10" height="10" rx="5" fill="#ff1744"/>
<text x="870" y="250" class="pct">2.4%</text>
<text x="40" y="278" class="label">PyTorch (1 repos)</text>
<rect x="395" y="267" width="425" height="10" rx="5" fill="#2a0d18"/>
<rect x="395" y="267" width="10" height="10" rx="5" fill="#ff1744"/>
<text x="870" y="278" class="pct">2.4%</text>
<text x="40" y="306" class="label">React (1 repos)</text>
<rect x="395" y="295" width="425" height="10" rx="5" fill="#2a0d18"/>
<rect x="395" y="295" width="10" height="10" rx="5" fill="#ff1744"/>
<text x="870" y="306" class="pct">2.4%</text>
<text x="40" y="334" class="label">Svelte (1 repos)</text>
<rect x="395" y="323" width="425" height="10" rx="5" fill="#2a0d18"/>
<rect x="395" y="323" width="10" height="10" rx="5" fill="#ff1744"/>
<text x="870" y="334" class="pct">2.4%</text>
<text x="40" y="362" class="label">Vue (1 repos)</text>
<rect x="395" y="351" width="425" height="10" rx="5" fill="#2a0d18"/>
<rect x="395" y="351" width="10" height="10" rx="5" fill="#ff1744"/>
<text x="870" y="362" class="pct">2.4%</text>
</svg>
