<?xml version="1.0" encoding="UTF-8"?>
<svg xmlns="http://www.w3.org/2000/svg" width="920" height="1390" viewBox="0 0 920 1390" role="img" aria-labelledby="title desc">
  <title id="title">WhoIsMrSentry Interactive Profile Terminal</title>
  <desc id="desc">Typewriter terminal session with whoami, summary, neofetch, streak, activity graph, commit calendar, uptime, and bio.</desc>

  <defs>
    <style>
      .outer { fill: #200009; }
      .terminal { fill: #200009; }
      .head { fill: #15000a; }
      .frame { fill: none; stroke: #88001b; stroke-width: 2; }
      .prompt { fill: #39ff14; font: 700 16px Monaco, Consolas, Menlo, monospace; }
      .cmd { fill: #ff5f58; font: 600 16px Monaco, Consolas, Menlo, monospace; }
      .txt { fill: #e6e6e6; font: 500 15px Monaco, Consolas, Menlo, monospace; }
      .info { fill: #ff5f58; font: 600 15px Monaco, Consolas, Menlo, monospace; }
      .ascii { fill: #39ff14; font: 500 4.2px Monaco, Consolas, Menlo, monospace; }
      .box-frame { fill: #15000a; stroke: #88001b; stroke-width: 1.5; }
      .box-head { fill: #39ff14; font: 700 13px Monaco, Consolas, monospace; }
      .box-sub { fill: #ff5f58; font: 600 12px Monaco, Consolas, monospace; }
      .val-large { fill: #ffffff; font: 700 24px Monaco, Consolas, monospace; text-anchor: middle; }
      .val-label { fill: #a0a0a0; font: 500 12px Monaco, Consolas, monospace; text-anchor: middle; }
      .val-date { fill: #ff5f58; font: 500 11px Monaco, Consolas, monospace; text-anchor: middle; }

      /* Animation Loop (28s cycle) */
      @keyframes blink {
        0%, 49% { opacity: 1; }
        50%, 100% { opacity: 0; }
      }

      /* Base styles: default visible if CSS animations not supported */
      .pr-1, .pr-2, .pr-3, .pr-4, .pr-5, .pr-6, .pr-7, .pr-8, .pr-9 { opacity: 1; }
      .out-1, .out-2, .out-3, .out-4, .out-5, .out-6, .out-7, .out-8 { opacity: 1; }
      .cmd-1, .cmd-2, .cmd-3, .cmd-4, .cmd-5, .cmd-6, .cmd-7, .cmd-8, .cmd-9 { clip-path: inset(0 0 0 0); }

      /* Step 1: whoami */
      .pr-1 { animation: pAnim1 28s infinite; }
      @keyframes pAnim1 {
        0%, 0.9% { opacity: 0; }
        1%, 97.5% { opacity: 1; }
        98.5%, 100% { opacity: 0; }
      }
      .cmd-1 { animation: cAnim1 28s steps(6, end) infinite; }
      @keyframes cAnim1 {
        0%, 1.5% { clip-path: inset(0 100% 0 0); }
        3.5%, 97.5% { clip-path: inset(0 0 0 0); }
        98.5%, 100% { clip-path: inset(0 100% 0 0); }
      }
      .out-1 { animation: oAnim1 28s infinite; }
      @keyframes oAnim1 {
        0%, 4% { opacity: 0; transform: translateY(-2px); }
        4.6%, 97.5% { opacity: 1; transform: translateY(0); }
        98.5%, 100% { opacity: 0; }
      }

      /* Step 2: profile summary */
      .pr-2 { animation: pAnim2 28s infinite; }
      @keyframes pAnim2 {
        0%, 6% { opacity: 0; }
        6.4%, 97.5% { opacity: 1; }
        98.5%, 100% { opacity: 0; }
      }
      .cmd-2 { animation: cAnim2 28s steps(19, end) infinite; }
      @keyframes cAnim2 {
        0%, 7% { clip-path: inset(0 100% 0 0); }
        10%, 97.5% { clip-path: inset(0 0 0 0); }
        98.5%, 100% { clip-path: inset(0 100% 0 0); }
      }
      .out-2 { animation: oAnim2 28s infinite; }
      @keyframes oAnim2 {
        0%, 10.8% { opacity: 0; transform: translateY(-2px); }
        11.4%, 97.5% { opacity: 1; transform: translateY(0); }
        98.5%, 100% { opacity: 0; }
      }

      /* Step 3: neofetch */
      .pr-3 { animation: pAnim3 28s infinite; }
      @keyframes pAnim3 {
        0%, 13% { opacity: 0; }
        13.5%, 97.5% { opacity: 1; }
        98.5%, 100% { opacity: 0; }
      }
      .cmd-3 { animation: cAnim3 28s steps(8, end) infinite; }
      @keyframes cAnim3 {
        0%, 14.2% { clip-path: inset(0 100% 0 0); }
        16.8%, 97.5% { clip-path: inset(0 0 0 0); }
        98.5%, 100% { clip-path: inset(0 100% 0 0); }
      }
      .out-3 { animation: oAnim3 28s infinite; }
      @keyframes oAnim3 {
        0%, 17.2% { opacity: 0; transform: translateY(3px); }
        17.8%, 97.5% { opacity: 1; transform: translateY(0); }
        98.5%, 100% { opacity: 0; }
      }

      /* Step 4: profile streak */
      .pr-4 { animation: pAnim4 28s infinite; }
      @keyframes pAnim4 {
        0%, 21.5% { opacity: 0; }
        22.1%, 97.5% { opacity: 1; }
        98.5%, 100% { opacity: 0; }
      }
      .cmd-4 { animation: cAnim4 28s steps(16, end) infinite; }
      @keyframes cAnim4 {
        0%, 22.8% { clip-path: inset(0 100% 0 0); }
        26%, 97.5% { clip-path: inset(0 0 0 0); }
        98.5%, 100% { clip-path: inset(0 100% 0 0); }
      }
      .out-4 { animation: oAnim4 28s infinite; }
      @keyframes oAnim4 {
        0%, 26.5% { opacity: 0; transform: translateY(4px); }
        27.1%, 97.5% { opacity: 1; transform: translateY(0); }
        98.5%, 100% { opacity: 0; }
      }

      /* Step 5: profile activity */
      .pr-5 { animation: pAnim5 28s infinite; }
      @keyframes pAnim5 {
        0%, 30.8% { opacity: 0; }
        31.4%, 97.5% { opacity: 1; }
        98.5%, 100% { opacity: 0; }
      }
      .cmd-5 { animation: cAnim5 28s steps(18, end) infinite; }
      @keyframes cAnim5 {
        0%, 32.1% { clip-path: inset(0 100% 0 0); }
        35.8%, 97.5% { clip-path: inset(0 0 0 0); }
        98.5%, 100% { clip-path: inset(0 100% 0 0); }
      }
      .out-5 { animation: oAnim5 28s infinite; }
      @keyframes oAnim5 {
        0%, 36.2% { opacity: 0; transform: translateY(4px); }
        36.8%, 97.5% { opacity: 1; transform: translateY(0); }
        98.5%, 100% { opacity: 0; }
      }

      /* Step 6: profile commits */
      .pr-6 { animation: pAnim6 28s infinite; }
      @keyframes pAnim6 {
        0%, 40.5% { opacity: 0; }
        41%, 97.5% { opacity: 1; }
        98.5%, 100% { opacity: 0; }
      }
      .cmd-6 { animation: cAnim6 28s steps(17, end) infinite; }
      @keyframes cAnim6 {
        0%, 41.8% { clip-path: inset(0 100% 0 0); }
        45.2%, 97.5% { clip-path: inset(0 0 0 0); }
        98.5%, 100% { clip-path: inset(0 100% 0 0); }
      }
      .out-6 { animation: oAnim6 28s infinite; }
      @keyframes oAnim6 {
        0%, 45.8% { opacity: 0; transform: translateY(4px); }
        46.4%, 97.5% { opacity: 1; transform: translateY(0); }
        98.5%, 100% { opacity: 0; }
      }

      /* Step 7: uptime */
      .pr-7 { animation: pAnim7 28s infinite; }
      @keyframes pAnim7 {
        0%, 50.2% { opacity: 0; }
        50.7%, 97.5% { opacity: 1; }
        98.5%, 100% { opacity: 0; }
      }
      .cmd-7 { animation: cAnim7 28s steps(6, end) infinite; }
      @keyframes cAnim7 {
        0%, 51.4% { clip-path: inset(0 100% 0 0); }
        53.2%, 97.5% { clip-path: inset(0 0 0 0); }
        98.5%, 100% { clip-path: inset(0 100% 0 0); }
      }
      .out-7 { animation: oAnim7 28s infinite; }
      @keyframes oAnim7 {
        0%, 53.8% { opacity: 0; transform: translateY(-2px); }
        54.3%, 97.5% { opacity: 1; transform: translateY(0); }
        98.5%, 100% { opacity: 0; }
      }

      /* Step 8: cat about */
      .pr-8 { animation: pAnim8 28s infinite; }
      @keyframes pAnim8 {
        0%, 55.8% { opacity: 0; }
        56.4%, 97.5% { opacity: 1; }
        98.5%, 100% { opacity: 0; }
      }
      .cmd-8 { animation: cAnim8 28s steps(13, end) infinite; }
      @keyframes cAnim8 {
        0%, 57.1% { clip-path: inset(0 100% 0 0); }
        60%, 97.5% { clip-path: inset(0 0 0 0); }
        98.5%, 100% { clip-path: inset(0 100% 0 0); }
      }
      .out-8 { animation: oAnim8 28s infinite; }
      @keyframes oAnim8 {
        0%, 60.5% { opacity: 0; transform: translateY(-2px); }
        61%, 97.5% { opacity: 1; transform: translateY(0); }
        98.5%, 100% { opacity: 0; }
      }

      /* Step 9: exit */
      .pr-9 { animation: pAnim9 28s infinite; }
      @keyframes pAnim9 {
        0%, 63% { opacity: 0; }
        63.5%, 97.5% { opacity: 1; }
        98.5%, 100% { opacity: 0; }
      }
      .cmd-9 { animation: cAnim9 28s steps(4, end) infinite; }
      @keyframes cAnim9 {
        0%, 64.2% { clip-path: inset(0 100% 0 0); }
        66%, 97.5% { clip-path: inset(0 0 0 0); }
        98.5%, 100% { clip-path: inset(0 100% 0 0); }
      }

      .cursor-blink {
        animation: blink 1s infinite;
      }
    </style>
  </defs>

  <!-- Frame and Header -->
  <rect class="outer" x="0" y="0" width="920" height="1390" rx="16"/>
  <rect class="terminal" x="16" y="16" width="888" height="1358" rx="10"/>
  <rect class="frame" x="16" y="16" width="888" height="1358" rx="10"/>
  <rect class="head" x="16" y="16" width="888" height="40" rx="10"/>

  <circle cx="42" cy="36" r="6.5" fill="#ff5f58"/>
  <circle cx="62" cy="36" r="6.5" fill="#ffbd2e"/>
  <circle cx="82" cy="36" r="6.5" fill="#18c132"/>
  <text x="460" y="41" fill="#e6ffe6" font-family="Monaco, Consolas, monospace" font-size="13" font-weight="bold" text-anchor="middle">WhoIsMrSentry@github.com: ~ (bash)</text>

  <!-- 1. whoami -->
  <g class="pr-1">
    <text class="prompt" x="44" y="90">WhoIsMrSentry@github.com:~$</text>
    <text class="cmd cmd-1" x="315" y="90">whoami</text>
  </g>
  <g class="out-1">
    <text class="txt" x="44" y="118">Emir Hamurcu</text>
  </g>

  <!-- 2. profile summary -->
  <g class="pr-2">
    <text class="prompt" x="44" y="158">WhoIsMrSentry@github.com:~$</text>
    <text class="cmd cmd-2" x="315" y="158">./profile --summary</text>
  </g>
  <g class="out-2">
    <text class="info" x="44" y="186">Focus:</text><text class="txt" x="115" y="186">Robotics &amp; Embedded AI</text>
    <text class="info" x="44" y="210">Role:</text><text class="txt" x="115" y="210">Software Developer · Embedded AI</text>
    <text class="info" x="44" y="234">Status:</text><text class="txt" x="115" y="234">Open to Collaboration</text>
  </g>

  <!-- 3. neofetch -->
  <g class="pr-3">
    <text class="prompt" x="44" y="276">WhoIsMrSentry@github.com:~$</text>
    <text class="cmd cmd-3" x="315" y="276">neofetch</text>
  </g>
  <g class="out-3">
    <text class="ascii" x="44" y="304" xml:space="preserve">
      <tspan x="44" dy="0">                               @@@@@@@@@@@@</tspan>
      <tspan x="44" dy="4.5">                         @@@@@@@@@@@@@@@@@@@@@@@@@</tspan>
      <tspan x="44" dy="4.5">                    @@@@@@@@@@@@@@@@@@@@@@@@@@@@@@@@@@</tspan>
      <tspan x="44" dy="4.5">                 @@@@@@@@@@@@@@@@@@@@@@@@@@@@@@@@@@@@@@@@</tspan>
      <tspan x="44" dy="4.5">              @@@@@@@@@@@@@@@@@@@@@@@@@@@@@@@@@@@@@@@@@@@@@@</tspan>
      <tspan x="44" dy="4.5">            @@@@@@@@@@@@@@@@@@@@@@@@@@@@@@@@@@@@@@@@@@@@@@@@@@</tspan>
      <tspan x="44" dy="4.5">          @@@@@@@@@@@@@@@@@@@@@@@@@@@@@@@@@@@@@@@@@@@@@@@@@@@@@@</tspan>
      <tspan x="44" dy="4.5">         @@@@@@@@@@@@@@@@@@@@@@@@@@@@@@@@@@@@@@@@@@@@@@@@@@@@@@@@</tspan>
      <tspan x="44" dy="4.5">       @@@@@@@@@@@@@@@@@@@@@@@@@@@@@@@@@@@@@@@@@@@@@@@@@@@@@@@@@@@@</tspan>
      <tspan x="44" dy="4.5">      @@@@@@@@@@@      @@@@@@@@@@@@@@@@@@@@@@@@@@@@      @@@@@@@@@@@</tspan>
      <tspan x="44" dy="4.5">     @@@@@@@@@@@          @@@@@@          @@@@@@          @@@@@@@@@@@</tspan>
      <tspan x="44" dy="4.5">    @@@@@@@@@@@@                                          @@@@@@@@@@@@</tspan>
      <tspan x="44" dy="4.5">   @@@@@@@@@@@@@                                          @@@@@@@@@@@@@</tspan>
      <tspan x="44" dy="4.5">  @@@@@@@@@@@@@@                                          @@@@@@@@@@@@@@</tspan>
      <tspan x="44" dy="4.5"> @@@@@@@@@@@@@@@@                                        @@@@@@@@@@@@@@@@</tspan>
      <tspan x="44" dy="4.5"> @@@@@@@@@@@@@@                                            @@@@@@@@@@@@@@</tspan>
      <tspan x="44" dy="4.5"> @@@@@@@@@@@@@                                              @@@@@@@@@@@@@</tspan>
      <tspan x="44" dy="4.5">@@@@@@@@@@@@@@                                               @@@@@@@@@@@@@</tspan>
      <tspan x="44" dy="4.5">@@@@@@@@@@@@@                                                @@@@@@@@@@@@@</tspan>
      <tspan x="44" dy="4.5">@@@@@@@@@@@@@                                                @@@@@@@@@@@@@</tspan>
      <tspan x="44" dy="4.5">@@@@@@@@@@@@@                                                @@@@@@@@@@@@@</tspan>
      <tspan x="44" dy="4.5">@@@@@@@@@@@@@                                                @@@@@@@@@@@@@</tspan>
      <tspan x="44" dy="4.5">@@@@@@@@@@@@@                                                @@@@@@@@@@@@@</tspan>
      <tspan x="44" dy="4.5">@@@@@@@@@@@@@@                                              @@@@@@@@@@@@@@</tspan>
      <tspan x="44" dy="4.5"> @@@@@@@@@@@@@@                                            @@@@@@@@@@@@@@</tspan>
      <tspan x="44" dy="4.5"> @@@@@@@@@@@@@@@                                          @@@@@@@@@@@@@@@</tspan>
      <tspan x="44" dy="4.5">  @@@@@@@@@@@@@@@@@@                                  @@@@@@@@@@@@@@@@@@</tspan>
      <tspan x="44" dy="4.5">   @@@@@@@   @@@@@@@@@@                            @@@@@@@@@@@@@@@@@@@@</tspan>
      <tspan x="44" dy="4.5">     @@@@@@@@    @@@@@@@@@@@                  @@@@@@@@@@@@@@@@@@@@@@@</tspan>
      <tspan x="44" dy="4.5">      @@@@@@@@     @@@@@@@@@                  @@@@@@@@@@@@@@@@@@@@@@</tspan>
      <tspan x="44" dy="4.5">       @@@@@@@@                               @@@@@@@@@@@@@@@@@@@@@</tspan>
      <tspan x="44" dy="4.5">          @@@@@@@@                            @@@@@@@@@@@@@@@@@@</tspan>
      <tspan x="44" dy="4.5">            @@@@@@@@@@@@@@@@                  @@@@@@@@@@@@@@@@</tspan>
      <tspan x="44" dy="4.5">                %@@@@@@@@@@@                  @@@@@@@@@@@%</tspan>
      <tspan x="44" dy="4.5">                    @@@@@@@@                  @@@@@@@@</tspan>
    </text>

    <!-- Neofetch Details -->
    <text class="info" x="350" y="316" font-weight="bold">WhoIsMrSentry @github.com</text>
    <text class="info" x="350" y="336">--------------------------</text>
    <text class="info" x="350" y="356">OS:</text><text class="txt" x="390" y="356">GitHub Linux (x86_64)</text>
    <text class="info" x="350" y="376">Host:</text><text class="txt" x="404" y="376">github.com/WhoIsMrSentry</text>
    <text class="info" x="350" y="396">Kernel:</text><text class="txt" x="424" y="396">Automation Engine 2.0</text>
    <text class="info" x="350" y="416">Uptime:</text><text class="txt" x="420" y="416">3 years, 105 days</text>
    <text class="info" x="350" y="436">Repos:</text><text class="txt" x="415" y="436">76 (60 Public)</text>
    <text class="info" x="350" y="456">Contributions:</text><text class="txt" x="480" y="456">4,797</text>
    <text class="info" x="350" y="476">Commits:</text><text class="txt" x="425" y="476">2,619+</text>
    <text class="info" x="350" y="496">Followers / Stars:</text><text class="txt" x="515" y="496">24 / 18</text>
  </g>

  <!-- 4. profile streak -->
  <g class="pr-4">
    <text class="prompt" x="44" y="540">WhoIsMrSentry@github.com:~$</text>
    <text class="cmd cmd-4" x="315" y="540">./profile --streak</text>
  </g>
  <g class="out-4">
    <rect class="box-frame" x="44" y="556" width="832" height="114" rx="8"/>
    <rect x="44" y="556" width="832" height="28" rx="8" fill="#1b000d"/>
    <line x1="44" y1="584" x2="876" y2="584" stroke="#88001b" stroke-width="1"/>
    <text class="box-head" x="60" y="575">⚡ GITHUB CONTRIBUTION STREAK METRICS</text>

    <!-- Column 1: Total Contribs -->
    <text class="val-large" x="180" y="622">4,797</text>
    <text class="val-label" x="180" y="642">Total Contributions</text>
    <text class="val-date" x="180" y="658">May 24, 2023 - Present</text>

    <line x1="320" y1="594" x2="320" y2="660" stroke="#440015" stroke-width="1"/>

    <!-- Column 2: Current Streak Ring & Fire -->
    <circle cx="460" cy="620" r="28" fill="none" stroke="#39ff14" stroke-width="3.5" stroke-dasharray="140, 36"/>
    <text class="val-large" x="460" y="628" fill="#39ff14">257</text>
    <text class="val-label" x="460" y="646" fill="#39ff14">🔥 Current Streak</text>
    <text class="val-date" x="460" y="660" fill="#39ff14">Dec 23, 2025 - Sep 5</text>

    <line x1="600" y1="594" x2="600" y2="660" stroke="#440015" stroke-width="1"/>

    <!-- Column 3: Longest Streak -->
    <text class="val-large" x="740" y="622">257</text>
    <text class="val-label" x="740" y="642">Longest Streak</text>
    <text class="val-date" x="740" y="658">Dec 23, 2025 - Sep 5</text>
  </g>

  <!-- 5. profile activity -->
  <g class="pr-5">
    <text class="prompt" x="44" y="716">WhoIsMrSentry@github.com:~$</text>
    <text class="cmd cmd-5" x="315" y="716">./profile --activity</text>
  </g>
  <g class="out-5">
    <rect class="box-frame" x="44" y="732" width="832" height="184" rx="8"/>
    <rect x="44" y="732" width="832" height="28" rx="8" fill="#1b000d"/>
    <line x1="44" y1="760" x2="876" y2="760" stroke="#88001b" stroke-width="1"/>
    <text class="box-head" x="60" y="751">📈 EMIR HAMURCU'S CONTRIBUTION GRAPH (LAST 30 DAYS)</text>
    <text class="box-sub" x="860" y="751" text-anchor="end">PEAK: 46 COMMITS/DAY  •  STATUS: VERIFIED</text>
    
      <defs>
        <linearGradient id="actGrad" x1="0" y1="0" x2="0" y2="1">
          <stop offset="0%" stop-color="#39ff14" stop-opacity="0.35"/>
          <stop offset="100%" stop-color="#39ff14" stop-opacity="0.0"/>
        </linearGradient>
      </defs>
      <line x1="70" y1="856.0" x2="850" y2="856.0" stroke="#440015" stroke-dasharray="3,3" stroke-width="1"/><text x="62" y="860.0" fill="#a0a0a0" font-family="Monaco, Consolas, monospace" font-size="10" text-anchor="end">0</text><line x1="70" y1="838.8" x2="850" y2="838.8" stroke="#440015" stroke-dasharray="3,3" stroke-width="1"/><text x="62" y="842.8" fill="#a0a0a0" font-family="Monaco, Consolas, monospace" font-size="10" text-anchor="end">10</text><line x1="70" y1="821.6" x2="850" y2="821.6" stroke="#440015" stroke-dasharray="3,3" stroke-width="1"/><text x="62" y="825.6" fill="#a0a0a0" font-family="Monaco, Consolas, monospace" font-size="10" text-anchor="end">20</text><line x1="70" y1="804.4" x2="850" y2="804.4" stroke="#440015" stroke-dasharray="3,3" stroke-width="1"/><text x="62" y="808.4" fill="#a0a0a0" font-family="Monaco, Consolas, monospace" font-size="10" text-anchor="end">30</text><line x1="70" y1="787.2" x2="850" y2="787.2" stroke="#440015" stroke-dasharray="3,3" stroke-width="1"/><text x="62" y="791.2" fill="#a0a0a0" font-family="Monaco, Consolas, monospace" font-size="10" text-anchor="end">40</text><line x1="70" y1="770.0" x2="850" y2="770.0" stroke="#440015" stroke-dasharray="3,3" stroke-width="1"/><text x="62" y="774.0" fill="#a0a0a0" font-family="Monaco, Consolas, monospace" font-size="10" text-anchor="end">50</text>
      <path d="M 70.0 844.0 C 83.4 844.0, 83.4 847.4, 96.9 847.4 C 110.3 847.4, 110.3 844.0, 123.8 844.0 C 137.2 844.0, 137.2 844.0, 150.7 844.0 C 164.1 844.0, 164.1 844.0, 177.6 844.0 C 191.0 844.0, 191.0 776.9, 204.5 776.9 C 217.9 776.9, 217.9 819.9, 231.4 819.9 C 244.8 819.9, 244.8 838.8, 258.3 838.8 C 271.7 838.8, 271.7 813.0, 285.2 813.0 C 298.6 813.0, 298.6 819.9, 312.1 819.9 C 325.5 819.9, 325.5 830.2, 339.0 830.2 C 352.4 830.2, 352.4 830.2, 365.9 830.2 C 379.3 830.2, 379.3 835.4, 392.8 835.4 C 406.2 835.4, 406.2 816.4, 419.7 816.4 C 433.1 816.4, 433.1 830.2, 446.6 830.2 C 460.0 830.2, 460.0 828.5, 473.4 828.5 C 486.9 828.5, 486.9 833.6, 500.3 833.6 C 513.8 833.6, 513.8 828.5, 527.2 828.5 C 540.7 828.5, 540.7 835.4, 554.1 835.4 C 567.6 835.4, 567.6 828.5, 581.0 828.5 C 594.5 828.5, 594.5 814.7, 607.9 814.7 C 621.4 814.7, 621.4 828.5, 634.8 828.5 C 648.3 828.5, 648.3 837.1, 661.7 837.1 C 675.2 837.1, 675.2 842.2, 688.6 842.2 C 702.1 842.2, 702.1 842.2, 715.5 842.2 C 729.0 842.2, 729.0 842.2, 742.4 842.2 C 755.9 842.2, 755.9 842.2, 769.3 842.2 C 782.8 842.2, 782.8 842.2, 796.2 842.2 C 809.7 842.2, 809.7 842.2, 823.1 842.2 C 836.6 842.2, 836.6 826.8, 850.0 826.8 L 850.0 856.0 L 70.0 856.0 Z" fill="url(#actGrad)"/>
      <path d="M 70.0 844.0 C 83.4 844.0, 83.4 847.4, 96.9 847.4 C 110.3 847.4, 110.3 844.0, 123.8 844.0 C 137.2 844.0, 137.2 844.0, 150.7 844.0 C 164.1 844.0, 164.1 844.0, 177.6 844.0 C 191.0 844.0, 191.0 776.9, 204.5 776.9 C 217.9 776.9, 217.9 819.9, 231.4 819.9 C 244.8 819.9, 244.8 838.8, 258.3 838.8 C 271.7 838.8, 271.7 813.0, 285.2 813.0 C 298.6 813.0, 298.6 819.9, 312.1 819.9 C 325.5 819.9, 325.5 830.2, 339.0 830.2 C 352.4 830.2, 352.4 830.2, 365.9 830.2 C 379.3 830.2, 379.3 835.4, 392.8 835.4 C 406.2 835.4, 406.2 816.4, 419.7 816.4 C 433.1 816.4, 433.1 830.2, 446.6 830.2 C 460.0 830.2, 460.0 828.5, 473.4 828.5 C 486.9 828.5, 486.9 833.6, 500.3 833.6 C 513.8 833.6, 513.8 828.5, 527.2 828.5 C 540.7 828.5, 540.7 835.4, 554.1 835.4 C 567.6 835.4, 567.6 828.5, 581.0 828.5 C 594.5 828.5, 594.5 814.7, 607.9 814.7 C 621.4 814.7, 621.4 828.5, 634.8 828.5 C 648.3 828.5, 648.3 837.1, 661.7 837.1 C 675.2 837.1, 675.2 842.2, 688.6 842.2 C 702.1 842.2, 702.1 842.2, 715.5 842.2 C 729.0 842.2, 729.0 842.2, 742.4 842.2 C 755.9 842.2, 755.9 842.2, 769.3 842.2 C 782.8 842.2, 782.8 842.2, 796.2 842.2 C 809.7 842.2, 809.7 842.2, 823.1 842.2 C 836.6 842.2, 836.6 826.8, 850.0 826.8" fill="none" stroke="#39ff14" stroke-width="2.5" stroke-linecap="round" stroke-linejoin="round"/>
      <circle cx="70.0" cy="844.0" r="2.5" fill="#e6ffe6" stroke="#39ff14" stroke-width="1.2"/><circle cx="96.9" cy="847.4" r="2.5" fill="#e6ffe6" stroke="#39ff14" stroke-width="1.2"/><circle cx="123.8" cy="844.0" r="2.5" fill="#e6ffe6" stroke="#39ff14" stroke-width="1.2"/><circle cx="150.7" cy="844.0" r="2.5" fill="#e6ffe6" stroke="#39ff14" stroke-width="1.2"/><circle cx="177.6" cy="844.0" r="2.5" fill="#e6ffe6" stroke="#39ff14" stroke-width="1.2"/><circle cx="204.5" cy="776.9" r="4.5" fill="#39ff14" stroke="#ffffff" stroke-width="2"/><text x="204.5" y="768.9" fill="#39ff14" font-family="Monaco, Consolas, monospace" font-size="11" font-weight="bold" text-anchor="middle">46</text><circle cx="231.4" cy="819.9" r="2.5" fill="#e6ffe6" stroke="#39ff14" stroke-width="1.2"/><circle cx="258.3" cy="838.8" r="2.5" fill="#e6ffe6" stroke="#39ff14" stroke-width="1.2"/><circle cx="285.2" cy="813.0" r="2.5" fill="#e6ffe6" stroke="#39ff14" stroke-width="1.2"/><circle cx="312.1" cy="819.9" r="2.5" fill="#e6ffe6" stroke="#39ff14" stroke-width="1.2"/><circle cx="339.0" cy="830.2" r="2.5" fill="#e6ffe6" stroke="#39ff14" stroke-width="1.2"/><circle cx="365.9" cy="830.2" r="2.5" fill="#e6ffe6" stroke="#39ff14" stroke-width="1.2"/><circle cx="392.8" cy="835.4" r="2.5" fill="#e6ffe6" stroke="#39ff14" stroke-width="1.2"/><circle cx="419.7" cy="816.4" r="2.5" fill="#e6ffe6" stroke="#39ff14" stroke-width="1.2"/><circle cx="446.6" cy="830.2" r="2.5" fill="#e6ffe6" stroke="#39ff14" stroke-width="1.2"/><circle cx="473.4" cy="828.5" r="2.5" fill="#e6ffe6" stroke="#39ff14" stroke-width="1.2"/><circle cx="500.3" cy="833.6" r="2.5" fill="#e6ffe6" stroke="#39ff14" stroke-width="1.2"/><circle cx="527.2" cy="828.5" r="2.5" fill="#e6ffe6" stroke="#39ff14" stroke-width="1.2"/><circle cx="554.1" cy="835.4" r="2.5" fill="#e6ffe6" stroke="#39ff14" stroke-width="1.2"/><circle cx="581.0" cy="828.5" r="2.5" fill="#e6ffe6" stroke="#39ff14" stroke-width="1.2"/><circle cx="607.9" cy="814.7" r="2.5" fill="#e6ffe6" stroke="#39ff14" stroke-width="1.2"/><circle cx="634.8" cy="828.5" r="2.5" fill="#e6ffe6" stroke="#39ff14" stroke-width="1.2"/><circle cx="661.7" cy="837.1" r="2.5" fill="#e6ffe6" stroke="#39ff14" stroke-width="1.2"/><circle cx="688.6" cy="842.2" r="2.5" fill="#e6ffe6" stroke="#39ff14" stroke-width="1.2"/><circle cx="715.5" cy="842.2" r="2.5" fill="#e6ffe6" stroke="#39ff14" stroke-width="1.2"/><circle cx="742.4" cy="842.2" r="2.5" fill="#e6ffe6" stroke="#39ff14" stroke-width="1.2"/><circle cx="769.3" cy="842.2" r="2.5" fill="#e6ffe6" stroke="#39ff14" stroke-width="1.2"/><circle cx="796.2" cy="842.2" r="2.5" fill="#e6ffe6" stroke="#39ff14" stroke-width="1.2"/><circle cx="823.1" cy="842.2" r="2.5" fill="#e6ffe6" stroke="#39ff14" stroke-width="1.2"/><circle cx="850.0" cy="826.8" r="2.5" fill="#e6ffe6" stroke="#39ff14" stroke-width="1.2"/>
      <text x="70.0" y="872" fill="#a0a0a0" font-family="Monaco, Consolas, monospace" font-size="10" text-anchor="middle">7</text><text x="123.8" y="872" fill="#a0a0a0" font-family="Monaco, Consolas, monospace" font-size="10" text-anchor="middle">9</text><text x="177.6" y="872" fill="#a0a0a0" font-family="Monaco, Consolas, monospace" font-size="10" text-anchor="middle">11</text><text x="231.4" y="872" fill="#a0a0a0" font-family="Monaco, Consolas, monospace" font-size="10" text-anchor="middle">13</text><text x="285.2" y="872" fill="#a0a0a0" font-family="Monaco, Consolas, monospace" font-size="10" text-anchor="middle">15</text><text x="339.0" y="872" fill="#a0a0a0" font-family="Monaco, Consolas, monospace" font-size="10" text-anchor="middle">17</text><text x="392.8" y="872" fill="#a0a0a0" font-family="Monaco, Consolas, monospace" font-size="10" text-anchor="middle">19</text><text x="446.6" y="872" fill="#a0a0a0" font-family="Monaco, Consolas, monospace" font-size="10" text-anchor="middle">21</text><text x="500.3" y="872" fill="#a0a0a0" font-family="Monaco, Consolas, monospace" font-size="10" text-anchor="middle">23</text><text x="554.1" y="872" fill="#a0a0a0" font-family="Monaco, Consolas, monospace" font-size="10" text-anchor="middle">25</text><text x="607.9" y="872" fill="#a0a0a0" font-family="Monaco, Consolas, monospace" font-size="10" text-anchor="middle">27</text><text x="661.7" y="872" fill="#a0a0a0" font-family="Monaco, Consolas, monospace" font-size="10" text-anchor="middle">29</text><text x="715.5" y="872" fill="#a0a0a0" font-family="Monaco, Consolas, monospace" font-size="10" text-anchor="middle">31</text><text x="769.3" y="872" fill="#a0a0a0" font-family="Monaco, Consolas, monospace" font-size="10" text-anchor="middle">2</text><text x="823.1" y="872" fill="#a0a0a0" font-family="Monaco, Consolas, monospace" font-size="10" text-anchor="middle">4</text><text x="850.0" y="872" fill="#a0a0a0" font-family="Monaco, Consolas, monospace" font-size="10" text-anchor="middle">5</text>
      <text x="460.0" y="886" fill="#888888" font-family="Monaco, Consolas, monospace" font-size="10" text-anchor="middle">Days (30-Day Window)</text>
    
  </g>

  <!-- 6. profile commits -->
  <g class="pr-6">
    <text class="prompt" x="44" y="962">WhoIsMrSentry@github.com:~$</text>
    <text class="cmd cmd-6" x="315" y="962">./profile --commits</text>
  </g>
  <g class="out-6">
    <rect class="box-frame" x="44" y="978" width="832" height="156" rx="8"/>
    <rect x="44" y="978" width="832" height="28" rx="8" fill="#1b000d"/>
    <line x1="44" y1="1006" x2="876" y2="1006" stroke="#88001b" stroke-width="1"/>
    <text class="box-head" x="60" y="997">📅 COMMIT CALENDAR &amp; CONTRIBUTION MATRIX</text>
    <text class="box-sub" x="860" y="997" text-anchor="end">TOTAL: 4,797 COMMITS  •  ACTIVE: 257 DAYS</text>
    <text x="86" y="1012" fill="#a0a0a0" font-family="Monaco, Consolas, monospace" font-size="10">Jun</text><text x="266" y="1012" fill="#a0a0a0" font-family="Monaco, Consolas, monospace" font-size="10">Jul</text><text x="482" y="1012" fill="#a0a0a0" font-family="Monaco, Consolas, monospace" font-size="10">Aug</text><text x="698" y="1012" fill="#a0a0a0" font-family="Monaco, Consolas, monospace" font-size="10">Sep</text><text x="76" y="1038" fill="#a0a0a0" font-family="Monaco, Consolas, monospace" font-size="9" text-anchor="end">Mon</text><text x="76" y="1062" fill="#a0a0a0" font-family="Monaco, Consolas, monospace" font-size="9" text-anchor="end">Wed</text><text x="76" y="1086" fill="#a0a0a0" font-family="Monaco, Consolas, monospace" font-size="9" text-anchor="end">Fri</text><rect x="86" y="1018" width="14" height="9" rx="2" fill="#5c0018"/><rect x="104" y="1018" width="14" height="9" rx="2" fill="#88001b"/><rect x="122" y="1018" width="14" height="9" rx="2" fill="#2c000e"/><rect x="140" y="1018" width="14" height="9" rx="2" fill="#5c0018"/><rect x="158" y="1018" width="14" height="9" rx="2" fill="#d6002f"/><rect x="176" y="1018" width="14" height="9" rx="2" fill="#88001b"/><rect x="194" y="1018" width="14" height="9" rx="2" fill="#5c0018"/><rect x="212" y="1018" width="14" height="9" rx="2" fill="#2c000e"/><rect x="230" y="1018" width="14" height="9" rx="2" fill="#88001b"/><rect x="248" y="1018" width="14" height="9" rx="2" fill="#d6002f"/><rect x="266" y="1018" width="14" height="9" rx="2" fill="#39ff14" stroke="#39ff14" stroke-width="0.8"/><rect x="284" y="1018" width="14" height="9" rx="2" fill="#5c0018"/><rect x="302" y="1018" width="14" height="9" rx="2" fill="#2c000e"/><rect x="320" y="1018" width="14" height="9" rx="2" fill="#88001b"/><rect x="338" y="1018" width="14" height="9" rx="2" fill="#d6002f"/><rect x="356" y="1018" width="14" height="9" rx="2" fill="#5c0018"/><rect x="374" y="1018" width="14" height="9" rx="2" fill="#88001b"/><rect x="392" y="1018" width="14" height="9" rx="2" fill="#2c000e"/><rect x="410" y="1018" width="14" height="9" rx="2" fill="#5c0018"/><rect x="428" y="1018" width="14" height="9" rx="2" fill="#d6002f"/><rect x="446" y="1018" width="14" height="9" rx="2" fill="#88001b"/><rect x="464" y="1018" width="14" height="9" rx="2" fill="#5c0018"/><rect x="482" y="1018" width="14" height="9" rx="2" fill="#2c000e"/><rect x="500" y="1018" width="14" height="9" rx="2" fill="#88001b"/><rect x="518" y="1018" width="14" height="9" rx="2" fill="#d6002f"/><rect x="536" y="1018" width="14" height="9" rx="2" fill="#39ff14" stroke="#39ff14" stroke-width="0.8"/><rect x="554" y="1018" width="14" height="9" rx="2" fill="#5c0018"/><rect x="572" y="1018" width="14" height="9" rx="2" fill="#2c000e"/><rect x="590" y="1018" width="14" height="9" rx="2" fill="#88001b"/><rect x="608" y="1018" width="14" height="9" rx="2" fill="#d6002f"/><rect x="626" y="1018" width="14" height="9" rx="2" fill="#5c0018"/><rect x="644" y="1018" width="14" height="9" rx="2" fill="#88001b"/><rect x="662" y="1018" width="14" height="9" rx="2" fill="#2c000e"/><rect x="680" y="1018" width="14" height="9" rx="2" fill="#5c0018"/><rect x="698" y="1018" width="14" height="9" rx="2" fill="#d6002f"/><rect x="716" y="1018" width="14" height="9" rx="2" fill="#88001b"/><rect x="734" y="1018" width="14" height="9" rx="2" fill="#5c0018"/><rect x="752" y="1018" width="14" height="9" rx="2" fill="#2c000e"/><rect x="770" y="1018" width="14" height="9" rx="2" fill="#88001b"/><rect x="788" y="1018" width="14" height="9" rx="2" fill="#d6002f"/><rect x="86" y="1030" width="14" height="9" rx="2" fill="#88001b"/><rect x="104" y="1030" width="14" height="9" rx="2" fill="#d6002f"/><rect x="122" y="1030" width="14" height="9" rx="2" fill="#5c0018"/><rect x="140" y="1030" width="14" height="9" rx="2" fill="#88001b"/><rect x="158" y="1030" width="14" height="9" rx="2" fill="#2c000e"/><rect x="176" y="1030" width="14" height="9" rx="2" fill="#5c0018"/><rect x="194" y="1030" width="14" height="9" rx="2" fill="#d6002f"/><rect x="212" y="1030" width="14" height="9" rx="2" fill="#88001b"/><rect x="230" y="1030" width="14" height="9" rx="2" fill="#5c0018"/><rect x="248" y="1030" width="14" height="9" rx="2" fill="#2c000e"/><rect x="266" y="1030" width="14" height="9" rx="2" fill="#88001b"/><rect x="284" y="1030" width="14" height="9" rx="2" fill="#d6002f"/><rect x="302" y="1030" width="14" height="9" rx="2" fill="#39ff14" stroke="#39ff14" stroke-width="0.8"/><rect x="320" y="1030" width="14" height="9" rx="2" fill="#5c0018"/><rect x="338" y="1030" width="14" height="9" rx="2" fill="#2c000e"/><rect x="356" y="1030" width="14" height="9" rx="2" fill="#88001b"/><rect x="374" y="1030" width="14" height="9" rx="2" fill="#d6002f"/><rect x="392" y="1030" width="14" height="9" rx="2" fill="#5c0018"/><rect x="410" y="1030" width="14" height="9" rx="2" fill="#88001b"/><rect x="428" y="1030" width="14" height="9" rx="2" fill="#2c000e"/><rect x="446" y="1030" width="14" height="9" rx="2" fill="#5c0018"/><rect x="464" y="1030" width="14" height="9" rx="2" fill="#d6002f"/><rect x="482" y="1030" width="14" height="9" rx="2" fill="#88001b"/><rect x="500" y="1030" width="14" height="9" rx="2" fill="#5c0018"/><rect x="518" y="1030" width="14" height="9" rx="2" fill="#2c000e"/><rect x="536" y="1030" width="14" height="9" rx="2" fill="#88001b"/><rect x="554" y="1030" width="14" height="9" rx="2" fill="#d6002f"/><rect x="572" y="1030" width="14" height="9" rx="2" fill="#39ff14" stroke="#39ff14" stroke-width="0.8"/><rect x="590" y="1030" width="14" height="9" rx="2" fill="#5c0018"/><rect x="608" y="1030" width="14" height="9" rx="2" fill="#2c000e"/><rect x="626" y="1030" width="14" height="9" rx="2" fill="#88001b"/><rect x="644" y="1030" width="14" height="9" rx="2" fill="#d6002f"/><rect x="662" y="1030" width="14" height="9" rx="2" fill="#5c0018"/><rect x="680" y="1030" width="14" height="9" rx="2" fill="#88001b"/><rect x="698" y="1030" width="14" height="9" rx="2" fill="#2c000e"/><rect x="716" y="1030" width="14" height="9" rx="2" fill="#5c0018"/><rect x="734" y="1030" width="14" height="9" rx="2" fill="#d6002f"/><rect x="752" y="1030" width="14" height="9" rx="2" fill="#88001b"/><rect x="770" y="1030" width="14" height="9" rx="2" fill="#5c0018"/><rect x="788" y="1030" width="14" height="9" rx="2" fill="#39ff14" stroke="#39ff14" stroke-width="0.8"/><rect x="86" y="1042" width="14" height="9" rx="2" fill="#2c000e"/><rect x="104" y="1042" width="14" height="9" rx="2" fill="#5c0018"/><rect x="122" y="1042" width="14" height="9" rx="2" fill="#88001b"/><rect x="140" y="1042" width="14" height="9" rx="2" fill="#2c000e"/><rect x="158" y="1042" width="14" height="9" rx="2" fill="#5c0018"/><rect x="176" y="1042" width="14" height="9" rx="2" fill="#d6002f"/><rect x="194" y="1042" width="14" height="9" rx="2" fill="#88001b"/><rect x="212" y="1042" width="14" height="9" rx="2" fill="#5c0018"/><rect x="230" y="1042" width="14" height="9" rx="2" fill="#2c000e"/><rect x="248" y="1042" width="14" height="9" rx="2" fill="#88001b"/><rect x="266" y="1042" width="14" height="9" rx="2" fill="#d6002f"/><rect x="284" y="1042" width="14" height="9" rx="2" fill="#39ff14" stroke="#39ff14" stroke-width="0.8"/><rect x="302" y="1042" width="14" height="9" rx="2" fill="#5c0018"/><rect x="320" y="1042" width="14" height="9" rx="2" fill="#2c000e"/><rect x="338" y="1042" width="14" height="9" rx="2" fill="#88001b"/><rect x="356" y="1042" width="14" height="9" rx="2" fill="#d6002f"/><rect x="374" y="1042" width="14" height="9" rx="2" fill="#5c0018"/><rect x="392" y="1042" width="14" height="9" rx="2" fill="#88001b"/><rect x="410" y="1042" width="14" height="9" rx="2" fill="#2c000e"/><rect x="428" y="1042" width="14" height="9" rx="2" fill="#5c0018"/><rect x="446" y="1042" width="14" height="9" rx="2" fill="#d6002f"/><rect x="464" y="1042" width="14" height="9" rx="2" fill="#88001b"/><rect x="482" y="1042" width="14" height="9" rx="2" fill="#5c0018"/><rect x="500" y="1042" width="14" height="9" rx="2" fill="#2c000e"/><rect x="518" y="1042" width="14" height="9" rx="2" fill="#88001b"/><rect x="536" y="1042" width="14" height="9" rx="2" fill="#d6002f"/><rect x="554" y="1042" width="14" height="9" rx="2" fill="#39ff14" stroke="#39ff14" stroke-width="0.8"/><rect x="572" y="1042" width="14" height="9" rx="2" fill="#5c0018"/><rect x="590" y="1042" width="14" height="9" rx="2" fill="#2c000e"/><rect x="608" y="1042" width="14" height="9" rx="2" fill="#88001b"/><rect x="626" y="1042" width="14" height="9" rx="2" fill="#d6002f"/><rect x="644" y="1042" width="14" height="9" rx="2" fill="#5c0018"/><rect x="662" y="1042" width="14" height="9" rx="2" fill="#88001b"/><rect x="680" y="1042" width="14" height="9" rx="2" fill="#2c000e"/><rect x="698" y="1042" width="14" height="9" rx="2" fill="#5c0018"/><rect x="716" y="1042" width="14" height="9" rx="2" fill="#d6002f"/><rect x="734" y="1042" width="14" height="9" rx="2" fill="#88001b"/><rect x="752" y="1042" width="14" height="9" rx="2" fill="#5c0018"/><rect x="770" y="1042" width="14" height="9" rx="2" fill="#2c000e"/><rect x="788" y="1042" width="14" height="9" rx="2" fill="#d6002f"/><rect x="86" y="1054" width="14" height="9" rx="2" fill="#d6002f"/><rect x="104" y="1054" width="14" height="9" rx="2" fill="#39ff14" stroke="#39ff14" stroke-width="0.8"/><rect x="122" y="1054" width="14" height="9" rx="2" fill="#5c0018"/><rect x="140" y="1054" width="14" height="9" rx="2" fill="#2c000e"/><rect x="158" y="1054" width="14" height="9" rx="2" fill="#88001b"/><rect x="176" y="1054" width="14" height="9" rx="2" fill="#d6002f"/><rect x="194" y="1054" width="14" height="9" rx="2" fill="#5c0018"/><rect x="212" y="1054" width="14" height="9" rx="2" fill="#88001b"/><rect x="230" y="1054" width="14" height="9" rx="2" fill="#2c000e"/><rect x="248" y="1054" width="14" height="9" rx="2" fill="#5c0018"/><rect x="266" y="1054" width="14" height="9" rx="2" fill="#d6002f"/><rect x="284" y="1054" width="14" height="9" rx="2" fill="#88001b"/><rect x="302" y="1054" width="14" height="9" rx="2" fill="#5c0018"/><rect x="320" y="1054" width="14" height="9" rx="2" fill="#2c000e"/><rect x="338" y="1054" width="14" height="9" rx="2" fill="#88001b"/><rect x="356" y="1054" width="14" height="9" rx="2" fill="#d6002f"/><rect x="374" y="1054" width="14" height="9" rx="2" fill="#39ff14" stroke="#39ff14" stroke-width="0.8"/><rect x="392" y="1054" width="14" height="9" rx="2" fill="#5c0018"/><rect x="410" y="1054" width="14" height="9" rx="2" fill="#2c000e"/><rect x="428" y="1054" width="14" height="9" rx="2" fill="#88001b"/><rect x="446" y="1054" width="14" height="9" rx="2" fill="#d6002f"/><rect x="464" y="1054" width="14" height="9" rx="2" fill="#5c0018"/><rect x="482" y="1054" width="14" height="9" rx="2" fill="#88001b"/><rect x="500" y="1054" width="14" height="9" rx="2" fill="#2c000e"/><rect x="518" y="1054" width="14" height="9" rx="2" fill="#5c0018"/><rect x="536" y="1054" width="14" height="9" rx="2" fill="#d6002f"/><rect x="554" y="1054" width="14" height="9" rx="2" fill="#88001b"/><rect x="572" y="1054" width="14" height="9" rx="2" fill="#5c0018"/><rect x="590" y="1054" width="14" height="9" rx="2" fill="#2c000e"/><rect x="608" y="1054" width="14" height="9" rx="2" fill="#88001b"/><rect x="626" y="1054" width="14" height="9" rx="2" fill="#d6002f"/><rect x="644" y="1054" width="14" height="9" rx="2" fill="#39ff14" stroke="#39ff14" stroke-width="0.8"/><rect x="662" y="1054" width="14" height="9" rx="2" fill="#5c0018"/><rect x="680" y="1054" width="14" height="9" rx="2" fill="#2c000e"/><rect x="698" y="1054" width="14" height="9" rx="2" fill="#88001b"/><rect x="716" y="1054" width="14" height="9" rx="2" fill="#d6002f"/><rect x="734" y="1054" width="14" height="9" rx="2" fill="#5c0018"/><rect x="752" y="1054" width="14" height="9" rx="2" fill="#88001b"/><rect x="770" y="1054" width="14" height="9" rx="2" fill="#d6002f"/><rect x="788" y="1054" width="14" height="9" rx="2" fill="#39ff14" stroke="#39ff14" stroke-width="0.8"/><rect x="86" y="1066" width="14" height="9" rx="2" fill="#5c0018"/><rect x="104" y="1066" width="14" height="9" rx="2" fill="#2c000e"/><rect x="122" y="1066" width="14" height="9" rx="2" fill="#88001b"/><rect x="140" y="1066" width="14" height="9" rx="2" fill="#d6002f"/><rect x="158" y="1066" width="14" height="9" rx="2" fill="#5c0018"/><rect x="176" y="1066" width="14" height="9" rx="2" fill="#88001b"/><rect x="194" y="1066" width="14" height="9" rx="2" fill="#2c000e"/><rect x="212" y="1066" width="14" height="9" rx="2" fill="#5c0018"/><rect x="230" y="1066" width="14" height="9" rx="2" fill="#d6002f"/><rect x="248" y="1066" width="14" height="9" rx="2" fill="#88001b"/><rect x="266" y="1066" width="14" height="9" rx="2" fill="#5c0018"/><rect x="284" y="1066" width="14" height="9" rx="2" fill="#2c000e"/><rect x="302" y="1066" width="14" height="9" rx="2" fill="#88001b"/><rect x="320" y="1066" width="14" height="9" rx="2" fill="#d6002f"/><rect x="338" y="1066" width="14" height="9" rx="2" fill="#39ff14" stroke="#39ff14" stroke-width="0.8"/><rect x="356" y="1066" width="14" height="9" rx="2" fill="#5c0018"/><rect x="374" y="1066" width="14" height="9" rx="2" fill="#2c000e"/><rect x="392" y="1066" width="14" height="9" rx="2" fill="#88001b"/><rect x="410" y="1066" width="14" height="9" rx="2" fill="#d6002f"/><rect x="428" y="1066" width="14" height="9" rx="2" fill="#5c0018"/><rect x="446" y="1066" width="14" height="9" rx="2" fill="#88001b"/><rect x="464" y="1066" width="14" height="9" rx="2" fill="#2c000e"/><rect x="482" y="1066" width="14" height="9" rx="2" fill="#5c0018"/><rect x="500" y="1066" width="14" height="9" rx="2" fill="#d6002f"/><rect x="518" y="1066" width="14" height="9" rx="2" fill="#88001b"/><rect x="536" y="1066" width="14" height="9" rx="2" fill="#5c0018"/><rect x="554" y="1066" width="14" height="9" rx="2" fill="#2c000e"/><rect x="572" y="1066" width="14" height="9" rx="2" fill="#88001b"/><rect x="590" y="1066" width="14" height="9" rx="2" fill="#d6002f"/><rect x="608" y="1066" width="14" height="9" rx="2" fill="#39ff14" stroke="#39ff14" stroke-width="0.8"/><rect x="626" y="1066" width="14" height="9" rx="2" fill="#5c0018"/><rect x="644" y="1066" width="14" height="9" rx="2" fill="#2c000e"/><rect x="662" y="1066" width="14" height="9" rx="2" fill="#88001b"/><rect x="680" y="1066" width="14" height="9" rx="2" fill="#d6002f"/><rect x="698" y="1066" width="14" height="9" rx="2" fill="#5c0018"/><rect x="716" y="1066" width="14" height="9" rx="2" fill="#88001b"/><rect x="734" y="1066" width="14" height="9" rx="2" fill="#2c000e"/><rect x="752" y="1066" width="14" height="9" rx="2" fill="#5c0018"/><rect x="770" y="1066" width="14" height="9" rx="2" fill="#88001b"/><rect x="788" y="1066" width="14" height="9" rx="2" fill="#d6002f"/><rect x="86" y="1078" width="14" height="9" rx="2" fill="#88001b"/><rect x="104" y="1078" width="14" height="9" rx="2" fill="#5c0018"/><rect x="122" y="1078" width="14" height="9" rx="2" fill="#2c000e"/><rect x="140" y="1078" width="14" height="9" rx="2" fill="#88001b"/><rect x="158" y="1078" width="14" height="9" rx="2" fill="#d6002f"/><rect x="176" y="1078" width="14" height="9" rx="2" fill="#39ff14" stroke="#39ff14" stroke-width="0.8"/><rect x="194" y="1078" width="14" height="9" rx="2" fill="#5c0018"/><rect x="212" y="1078" width="14" height="9" rx="2" fill="#2c000e"/><rect x="230" y="1078" width="14" height="9" rx="2" fill="#88001b"/><rect x="248" y="1078" width="14" height="9" rx="2" fill="#d6002f"/><rect x="266" y="1078" width="14" height="9" rx="2" fill="#5c0018"/><rect x="284" y="1078" width="14" height="9" rx="2" fill="#88001b"/><rect x="302" y="1078" width="14" height="9" rx="2" fill="#2c000e"/><rect x="320" y="1078" width="14" height="9" rx="2" fill="#5c0018"/><rect x="338" y="1078" width="14" height="9" rx="2" fill="#d6002f"/><rect x="356" y="1078" width="14" height="9" rx="2" fill="#88001b"/><rect x="374" y="1078" width="14" height="9" rx="2" fill="#5c0018"/><rect x="392" y="1078" width="14" height="9" rx="2" fill="#2c000e"/><rect x="410" y="1078" width="14" height="9" rx="2" fill="#88001b"/><rect x="428" y="1078" width="14" height="9" rx="2" fill="#d6002f"/><rect x="446" y="1078" width="14" height="9" rx="2" fill="#39ff14" stroke="#39ff14" stroke-width="0.8"/><rect x="464" y="1078" width="14" height="9" rx="2" fill="#5c0018"/><rect x="482" y="1078" width="14" height="9" rx="2" fill="#2c000e"/><rect x="500" y="1078" width="14" height="9" rx="2" fill="#88001b"/><rect x="518" y="1078" width="14" height="9" rx="2" fill="#d6002f"/><rect x="536" y="1078" width="14" height="9" rx="2" fill="#5c0018"/><rect x="554" y="1078" width="14" height="9" rx="2" fill="#88001b"/><rect x="572" y="1078" width="14" height="9" rx="2" fill="#2c000e"/><rect x="590" y="1078" width="14" height="9" rx="2" fill="#5c0018"/><rect x="608" y="1078" width="14" height="9" rx="2" fill="#d6002f"/><rect x="626" y="1078" width="14" height="9" rx="2" fill="#88001b"/><rect x="644" y="1078" width="14" height="9" rx="2" fill="#5c0018"/><rect x="662" y="1078" width="14" height="9" rx="2" fill="#2c000e"/><rect x="680" y="1078" width="14" height="9" rx="2" fill="#88001b"/><rect x="698" y="1078" width="14" height="9" rx="2" fill="#d6002f"/><rect x="716" y="1078" width="14" height="9" rx="2" fill="#39ff14" stroke="#39ff14" stroke-width="0.8"/><rect x="734" y="1078" width="14" height="9" rx="2" fill="#5c0018"/><rect x="752" y="1078" width="14" height="9" rx="2" fill="#2c000e"/><rect x="770" y="1078" width="14" height="9" rx="2" fill="#5c0018"/><rect x="788" y="1078" width="14" height="9" rx="2" fill="#88001b"/><rect x="86" y="1090" width="14" height="9" rx="2" fill="#2c000e"/><rect x="104" y="1090" width="14" height="9" rx="2" fill="#88001b"/><rect x="122" y="1090" width="14" height="9" rx="2" fill="#d6002f"/><rect x="140" y="1090" width="14" height="9" rx="2" fill="#5c0018"/><rect x="158" y="1090" width="14" height="9" rx="2" fill="#88001b"/><rect x="176" y="1090" width="14" height="9" rx="2" fill="#2c000e"/><rect x="194" y="1090" width="14" height="9" rx="2" fill="#5c0018"/><rect x="212" y="1090" width="14" height="9" rx="2" fill="#d6002f"/><rect x="230" y="1090" width="14" height="9" rx="2" fill="#88001b"/><rect x="248" y="1090" width="14" height="9" rx="2" fill="#5c0018"/><rect x="266" y="1090" width="14" height="9" rx="2" fill="#2c000e"/><rect x="284" y="1090" width="14" height="9" rx="2" fill="#88001b"/><rect x="302" y="1090" width="14" height="9" rx="2" fill="#d6002f"/><rect x="320" y="1090" width="14" height="9" rx="2" fill="#39ff14" stroke="#39ff14" stroke-width="0.8"/><rect x="338" y="1090" width="14" height="9" rx="2" fill="#5c0018"/><rect x="356" y="1090" width="14" height="9" rx="2" fill="#2c000e"/><rect x="374" y="1090" width="14" height="9" rx="2" fill="#88001b"/><rect x="392" y="1090" width="14" height="9" rx="2" fill="#d6002f"/><rect x="410" y="1090" width="14" height="9" rx="2" fill="#5c0018"/><rect x="428" y="1090" width="14" height="9" rx="2" fill="#88001b"/><rect x="446" y="1090" width="14" height="9" rx="2" fill="#2c000e"/><rect x="464" y="1090" width="14" height="9" rx="2" fill="#5c0018"/><rect x="482" y="1090" width="14" height="9" rx="2" fill="#d6002f"/><rect x="500" y="1090" width="14" height="9" rx="2" fill="#88001b"/><rect x="518" y="1090" width="14" height="9" rx="2" fill="#5c0018"/><rect x="536" y="1090" width="14" height="9" rx="2" fill="#2c000e"/><rect x="554" y="1090" width="14" height="9" rx="2" fill="#88001b"/><rect x="572" y="1090" width="14" height="9" rx="2" fill="#d6002f"/><rect x="590" y="1090" width="14" height="9" rx="2" fill="#39ff14" stroke="#39ff14" stroke-width="0.8"/><rect x="608" y="1090" width="14" height="9" rx="2" fill="#5c0018"/><rect x="626" y="1090" width="14" height="9" rx="2" fill="#2c000e"/><rect x="644" y="1090" width="14" height="9" rx="2" fill="#88001b"/><rect x="662" y="1090" width="14" height="9" rx="2" fill="#d6002f"/><rect x="680" y="1090" width="14" height="9" rx="2" fill="#5c0018"/><rect x="698" y="1090" width="14" height="9" rx="2" fill="#88001b"/><rect x="716" y="1090" width="14" height="9" rx="2" fill="#2c000e"/><rect x="734" y="1090" width="14" height="9" rx="2" fill="#5c0018"/><rect x="752" y="1090" width="14" height="9" rx="2" fill="#d6002f"/><rect x="770" y="1090" width="14" height="9" rx="2" fill="#88001b"/><rect x="788" y="1090" width="14" height="9" rx="2" fill="#5c0018"/>
      <text x="658" y="1124" fill="#a0a0a0" font-family="Monaco, Consolas, monospace" font-size="10" text-anchor="end">Less</text>
      <rect x="666" y="1116" width="11" height="9" rx="2" fill="#2c000e"/>
      <rect x="681" y="1116" width="11" height="9" rx="2" fill="#5c0018"/>
      <rect x="696" y="1116" width="11" height="9" rx="2" fill="#88001b"/>
      <rect x="711" y="1116" width="11" height="9" rx="2" fill="#d6002f"/>
      <rect x="726" y="1116" width="11" height="9" rx="2" fill="#39ff14"/>
      <text x="744" y="1124" fill="#a0a0a0" font-family="Monaco, Consolas, monospace" font-size="10">More</text>
    
  </g>

  <!-- 7. uptime -->
  <g class="pr-7">
    <text class="prompt" x="44" y="1180">WhoIsMrSentry@github.com:~$</text>
    <text class="cmd cmd-7" x="315" y="1180">uptime</text>
  </g>
  <g class="out-7">
    <text class="txt" x="44" y="1208">3 years, 105 days</text>
  </g>

  <!-- 8. cat about -->
  <g class="pr-8">
    <text class="prompt" x="44" y="1248">WhoIsMrSentry@github.com:~$</text>
    <text class="cmd cmd-8" x="315" y="1248">cat about.txt</text>
  </g>
  <g class="out-8">
    <text class="txt" x="44" y="1276">Building robotics and edge AI systems with production-first engineering.</text>
    <text class="txt" x="44" y="1300">Focused on reliable automation, maintainable code, and measurable results.</text>
  </g>

  <!-- 9. exit -->
  <g class="pr-9">
    <text class="prompt" x="44" y="1340">WhoIsMrSentry@github.com:~$</text>
    <text class="cmd cmd-9" x="315" y="1340">exit</text>
    <rect class="cursor-blink" x="370" y="1324" width="10" height="18" fill="#39ff14"/>
  </g>
</svg>
